<svg id="Layer_1" data-name="Layer 1" xmlns="http://www.w3.org/2000/svg" viewBox="0 0 247.83 47.77"><defs><style>.cls-1,.cls-5{fill:#1d8e5a;}.cls-2{font-size:45px;fill:#fff;font-family:Amaranth-Regular, Amaranth;letter-spacing:0.02em;}.cls-3{letter-spacing:-0.04em;}.cls-4{letter-spacing:-0.01em;}.cls-5{letter-spacing:0em;}.cls-6{letter-spacing:0.02em;}</style></defs><path class="cls-1" d="M2.08,9.23A2.08,2.08,0,1,0,.61,8.62,2.09,2.09,0,0,0,2.08,9.23Zm38.54,0a2.08,2.08,0,1,0-1.47-.61A2.09,2.09,0,0,0,40.62,9.23ZM2.08,11.32a1.57,1.57,0,0,1,1.11.45,1.59,1.59,0,0,1,.46,1.11V23.82h5.2a13.5,13.5,0,0,1-1-5.21A9.19,9.19,0,0,1,10,13a22,22,0,0,1,4.43-4.11,39.82,39.82,0,0,1,6.11-3.6l.11,0h0a1.56,1.56,0,0,1,.64-.13A1.59,1.59,0,0,1,22,5.2h0l.11,0c.61.29,1.22.6,1.82.92a40.94,40.94,0,0,1,4.29,2.68A22,22,0,0,1,32.69,13a9.17,9.17,0,0,1,2.21,5.63,13.5,13.5,0,0,1-1,5.21h5.2V12.88a1.59,1.59,0,0,1,.46-1.11,1.58,1.58,0,0,1,2.21,0,1.59,1.59,0,0,1,.46,1.11V40a2.61,2.61,0,0,1-2.61,2.61H28.12A2.61,2.61,0,0,1,25.52,40V36.32a4.17,4.17,0,1,0-8.33,0V40a2.61,2.61,0,0,1-2.61,2.61H3.13A2.61,2.61,0,0,1,.52,40V12.88A1.59,1.59,0,0,1,1,11.77,1.56,1.56,0,0,1,2.08,11.32Z"/><text class="cls-2" transform="translate(52.35 37.73)">IS<tspan class="cls-3" x="36" y="0">T</tspan><tspan class="cls-4" x="56.25" y="0">A</tspan><tspan class="cls-5" x="83.11" y="0">Q</tspan><tspan class="cls-6" x="113.22" y="0">ANE</tspan></text></svg>